<svg width="40" height="40" viewBox="0 0 40 40" fill="none" xmlns="http://www.w3.org/2000/svg">
<path fill-rule="evenodd" clip-rule="evenodd" d="M0 20C0 8.955 8.955 0 20 0C31.045 0 40 8.955 40 20C40 31.045 31.045 40 20 40C8.955 40 0 31.045 0 20ZM16.6667 26.6667V16.6667H13.3333V26.6667H16.6667ZM15 15.1817C13.9883 15.1817 13.1667 14.355 13.1667 13.3333C13.1667 12.3133 13.9867 11.485 15 11.485C16.0133 11.485 16.8333 12.3133 16.8333 13.3333C16.8333 14.355 16.0117 15.1817 15 15.1817ZM25.0033 26.6667H28.3333V21.0683C28.3333 15.595 23.12 15.795 21.6667 18.4883V16.6667H18.3333V26.6667H21.6667V21.8983C21.6667 19.0283 25.0033 18.7633 25.0033 21.8983V26.6667Z" fill="white"/>
</svg>
