<svg width="114" height="47" viewBox="0 0 114 47" fill="none" xmlns="http://www.w3.org/2000/svg">
<path d="M8.408 46.32C7.72533 46.32 7.14933 46 6.68 45.36C6.21067 44.6773 5.848 43.9093 5.592 43.056C5.336 42.2027 5.208 41.52 5.208 41.008C5.208 40.5387 5.25067 40.2187 5.336 40.048C5.464 39.8773 5.69867 39.7493 6.04 39.664C9.28267 38.768 12.1413 37.2107 14.616 34.992C17.1333 32.7733 18.904 30.128 19.928 27.056C17.9653 28.1227 15.832 28.656 13.528 28.656C11.6933 28.656 9.816 28.208 7.896 27.312C5.976 26.416 4.33333 24.9653 2.968 22.96C1.60267 20.912 0.92 18.288 0.92 15.088C0.92 11.8027 1.64533 9.09333 3.096 6.96C4.54667 4.82667 6.40267 3.26933 8.664 2.288C10.9253 1.264 13.3573 0.751999 15.96 0.751999C18.5627 0.751999 20.9947 1.328 23.256 2.48C25.56 3.58933 27.4373 5.40266 28.888 7.92C30.3387 10.3947 31.064 13.5733 31.064 17.456C31.064 24.752 29.4213 30.5547 26.136 34.864C22.8933 39.1307 19.4373 42.1173 15.768 43.824C12.0987 45.488 9.64533 46.32 8.408 46.32ZM16.28 21.168C17.816 21.168 19.5013 20.656 21.336 19.632C21.3787 18.992 21.4 18.0107 21.4 16.688C21.4 13.7013 20.888 11.5467 19.864 10.224C18.8827 8.90133 17.56 8.24 15.896 8.24C14.36 8.24 13.0587 8.85866 11.992 10.096C10.968 11.3333 10.456 12.912 10.456 14.832C10.456 16.7947 10.968 18.352 11.992 19.504C13.016 20.6133 14.4453 21.168 16.28 21.168ZM50.402 46.512C47.2447 46.512 44.5353 45.616 42.274 43.824C40.0127 41.9893 38.2633 39.3653 37.026 35.952C35.8313 32.496 35.234 28.3787 35.234 23.6C35.234 18.8213 35.8313 14.7253 37.026 11.312C38.2633 7.856 40.0127 5.232 42.274 3.44C44.5353 1.60533 47.2447 0.688 50.402 0.688C53.5593 0.688 56.2687 1.60533 58.53 3.44C60.7913 5.232 62.5193 7.856 63.714 11.312C64.9513 14.7253 65.57 18.8213 65.57 23.6C65.57 28.3787 64.9513 32.496 63.714 35.952C62.5193 39.3653 60.7913 41.9893 58.53 43.824C56.2687 45.616 53.5593 46.512 50.402 46.512ZM50.402 39.024C52.194 39.024 53.5593 37.7227 54.498 35.12C55.4793 32.5173 55.97 28.6773 55.97 23.6C55.97 18.5227 55.4793 14.6827 54.498 12.08C53.5593 9.47733 52.194 8.176 50.402 8.176C48.61 8.176 47.2233 9.47733 46.242 12.08C45.3033 14.6827 44.834 18.5227 44.834 23.6C44.834 28.6773 45.3033 32.5173 46.242 35.12C47.2233 37.7227 48.61 39.024 50.402 39.024ZM79.596 22.192C76.8653 22.192 74.5827 21.4027 72.748 19.824C70.9133 18.2453 69.996 15.4507 69.996 11.44C69.996 7.42933 70.9133 4.63467 72.748 3.056C74.5827 1.47733 76.8653 0.688 79.596 0.688C82.3267 0.688 84.6093 1.47733 86.444 3.056C88.2787 4.63467 89.196 7.42933 89.196 11.44C89.196 15.4507 88.2787 18.2453 86.444 19.824C84.6093 21.4027 82.3267 22.192 79.596 22.192ZM78.252 46.128C77.8253 46.128 77.484 46.064 77.228 45.936C77.0147 45.7653 76.908 45.552 76.908 45.296C76.908 45.0827 77.0147 44.7627 77.228 44.336L100.076 2.864C100.759 1.66933 101.697 1.072 102.892 1.072H105.708C106.135 1.072 106.455 1.15733 106.668 1.328C106.924 1.49867 107.052 1.712 107.052 1.968C107.052 2.13867 106.945 2.43733 106.732 2.864L83.884 44.336C83.2013 45.5307 82.2627 46.128 81.068 46.128H78.252ZM79.596 16.944C81.6013 16.944 82.604 15.1093 82.604 11.44C82.604 7.94133 81.6013 6.192 79.596 6.192C78.444 6.192 77.6333 6.704 77.164 7.728C76.7373 8.70933 76.524 9.94666 76.524 11.44C76.524 12.976 76.7587 14.2773 77.228 15.344C77.6973 16.4107 78.4867 16.944 79.596 16.944ZM104.364 46.512C101.633 46.512 99.3507 45.7227 97.516 44.144C95.6813 42.5653 94.764 39.7707 94.764 35.76C94.764 31.7493 95.6813 28.9547 97.516 27.376C99.3507 25.7973 101.633 25.008 104.364 25.008C107.095 25.008 109.377 25.7973 111.212 27.376C113.047 28.9547 113.964 31.7493 113.964 35.76C113.964 39.7707 113.047 42.5653 111.212 44.144C109.377 45.7227 107.095 46.512 104.364 46.512ZM104.364 41.264C106.369 41.264 107.372 39.4293 107.372 35.76C107.372 32.2613 106.369 30.512 104.364 30.512C103.212 30.512 102.401 31.024 101.932 32.048C101.505 33.0293 101.292 34.2667 101.292 35.76C101.292 37.296 101.527 38.5973 101.996 39.664C102.465 40.7307 103.255 41.264 104.364 41.264Z" fill="white"/>
</svg>
