<svg width="40" height="40" viewBox="0 0 40 40" fill="none" xmlns="http://www.w3.org/2000/svg">
<path fill-rule="evenodd" clip-rule="evenodd" d="M0 20C0 8.955 8.955 0 20 0C31.045 0 40 8.955 40 20C40 31.045 31.045 40 20 40C8.955 40 0 31.045 0 20ZM16.5033 30.315C25.3933 30.315 30.415 22.8083 30.11 16.075C31.0483 15.4 31.8583 14.5567 32.4983 13.5933C31.6417 13.975 30.7183 14.2317 29.75 14.3483C30.7383 13.755 31.4967 12.8183 31.855 11.7C30.9317 12.2483 29.905 12.6483 28.815 12.8617C27.9417 11.9317 26.6967 11.35 25.3217 11.35C22.23 11.35 19.9583 14.235 20.6567 17.2283C16.6783 17.0283 13.15 15.1233 10.79 12.2267C9.53667 14.3783 10.14 17.1933 12.2717 18.6183C11.4867 18.5933 10.75 18.3783 10.1033 18.02C10.0517 20.2383 11.6417 22.3117 13.9433 22.775C13.2717 22.9583 12.5317 23 11.78 22.8567C12.3917 24.7583 14.16 26.1433 16.2533 26.1817C14.2417 27.7567 11.7067 28.4633 9.16667 28.1633C11.285 29.5217 13.8 30.315 16.5033 30.315Z" fill="white"/>
</svg>
