<svg width="32" height="20" fill="none" xmlns="http://www.w3.org/2000/svg"><path fill-rule="evenodd" clip-rule="evenodd" d="M31.156 9.786c.075 5.243-4.143 9.651-9.386 9.841a9.757 9.757 0 01-3.951-.721 1.165 1.165 0 01-.57-1.596v-.039c.265-.494.874-.721 1.368-.494 1.14.494 2.432.684 3.8.494 3.382-.455 6.041-3.23 6.385-6.61.455-4.637-3.42-8.55-8.095-8.095-3.346.303-6.157 3.001-6.576 6.421-.114.95-.075 1.861.152 2.699.114.418-.039.835-.342 1.101-.645.57-1.671.266-1.861-.57a9.533 9.533 0 01-.114-4.029c.76-4.141 4.18-7.371 8.36-7.865 5.775-.685 10.754 3.8 10.83 9.462zM10.863 19.93c4.18-.494 7.6-3.724 8.36-7.865a9.746 9.746 0 00-.114-4.066c-.19-.836-1.216-1.178-1.862-.57-.304.266-.419.684-.341 1.102.228.874.265 1.785.151 2.735-.456 3.382-3.23 6.08-6.65 6.422-4.674.418-8.55-3.458-8.094-8.093.341-3.382 3.001-6.156 6.384-6.612 1.369-.19 2.66.039 3.8.495.531.228 1.101 0 1.369-.495v-.038c.304-.609.075-1.33-.57-1.596A9.544 9.544 0 008.62.704C4.061 1.16.413 4.922.033 9.52c-.493 6.08 4.674 11.134 10.83 10.412z" fill="#0E77AF"/></svg>