<svg width="33" height="35" fill="none" xmlns="http://www.w3.org/2000/svg"><path fill-rule="evenodd" clip-rule="evenodd" d="M13.884 7.225a.61.61 0 00-.822-.116C11.299 8.342 8.539 9.81 5.409 9.81h-.02c-.364 0-.707.13-.968.367a1.24 1.24 0 00-.42.912c-.002.163-.016 4.021 1.477 8.372 1.006 2.934 2.469 5.41 4.348 7.357a.61.61 0 00.436.182.61.61 0 00.396-.144.534.534 0 00.038-.785c-1.766-1.83-3.145-4.168-4.1-6.95-1.434-4.182-1.421-7.867-1.42-8.022 0-.058.037-.1.058-.12a.232.232 0 01.157-.056h.013c3.456 0 6.45-1.588 8.356-2.92a.534.534 0 00.124-.778z" fill="#0E77AF"/><path fill-rule="evenodd" clip-rule="evenodd" d="M16.302.351a1.064 1.064 0 00-.77-.351h-.034c-.277 0-.553.119-.749.319-.058.058-5.86 5.926-13.075 5.926-.186 0-.372-.004-.561-.012l-.052-.001a1.04 1.04 0 00-1.043.975c-.01.221-.252 5.48 1.413 11.53C3.669 26.87 8.316 32.47 14.87 34.932a1.085 1.085 0 00.646.034c.15-.038 3.565-.95 7.166-4.425a9.539 9.539 0 01-1.319-.263c-3.187 2.848-6.084 3.619-6.112 3.628-6.215-2.334-10.63-7.68-12.772-15.461C.946 12.875 1.076 7.979 1.1 7.327c.19.006.382.01.572.01 7.516 0 13.409-5.805 13.835-6.237 4.647 5.171 13.747 6.631 14.405 6.73a47.39 47.39 0 01-.35 4.898c.345.245.675.511.99.803.25-1.767.408-3.675.448-5.744a1.036 1.036 0 00-.9-1.033C30.01 6.74 20.808 5.385 16.3.35h.001z" fill="#0E77AF"/><path fill-rule="evenodd" clip-rule="evenodd" d="M33 21c0-4.97-3.805-9-8.499-9H24.5c-4.695 0-8.5 4.029-8.5 9 0 4.97 3.805 9 8.5 9 4.694 0 8.5-4.03 8.5-9zm-3.004 5.023l-1.024-1.084a.512.512 0 00-.752 0 .587.587 0 000 .796l1.024 1.084c.044.046.093.08.146.107-1.191 1.104-2.716 1.811-4.392 1.93a.588.588 0 00.033-.19v-1.532c0-.31-.237-.563-.531-.563-.294 0-.531.252-.531.563v1.533c0 .066.013.13.033.188-1.676-.118-3.2-.825-4.392-1.93a.533.533 0 00.146-.106l1.024-1.084a.587.587 0 000-.796.512.512 0 00-.752 0l-1.024 1.084a.546.546 0 00-.1.155 8.083 8.083 0 01-1.823-4.65.503.503 0 00.178.034h1.448c.293 0 .53-.251.53-.562 0-.31-.237-.563-.53-.563h-1.448a.503.503 0 00-.178.036 8.047 8.047 0 011.82-4.654.566.566 0 00.103.158l1.024 1.084a.514.514 0 00.752 0 .587.587 0 000-.796l-1.024-1.084a.533.533 0 00-.149-.108c1.231-1.144 2.761-1.815 4.396-1.928a.554.554 0 00-.034.188v1.533c0 .31.238.562.531.562.294 0 .531-.251.531-.562v-1.533a.59.59 0 00-.033-.188c1.69.118 3.273.832 4.525 2.049l-4.877 4.719-2.315-2.14a.511.511 0 00-.749.053.586.586 0 00.05.793l2.673 2.47a.512.512 0 00.708-.008l5.242-5.072a8.065 8.065 0 011.664 4.462.535.535 0 00-.178-.034h-1.447c-.294 0-.532.252-.532.563 0 .31.238.562.532.562h1.447a.503.503 0 00.178-.035 8.083 8.083 0 01-1.822 4.65.544.544 0 00-.101-.154zM12 27.5c0 .667-1 .667-1 0s1-.667 1 0z" fill="#0E77AF"/></svg>