<svg width="16" height="16" fill="none" xmlns="http://www.w3.org/2000/svg"><path fill-rule="evenodd" clip-rule="evenodd" d="M0 8a8 8 0 1116 0A8 8 0 010 8zm6.601 4.126c3.556 0 5.565-3.003 5.443-5.696.375-.27.7-.607.955-.993a3.82 3.82 0 01-1.099.302c.395-.237.699-.612.842-1.059-.37.22-.78.38-1.216.465a1.917 1.917 0 00-3.263 1.747A5.435 5.435 0 014.316 4.89c-.501.86-.26 1.986.593 2.556a1.91 1.91 0 01-.868-.239A1.918 1.918 0 005.577 9.11a1.92 1.92 0 01-.865.033 1.92 1.92 0 001.79 1.33 3.852 3.852 0 01-2.835.792 5.41 5.41 0 002.934.861z" fill="#fff"/></svg>