<svg width="75" height="75" fill="none" xmlns="http://www.w3.org/2000/svg"><path fill-rule="evenodd" clip-rule="evenodd" d="M2.83 30.152c3.75.687 7.576 1.07 11.402 1.07 6.888.078 13.776-1.3 20.203-3.904v12.78l4.514 2.143 1.53.765.004-15.685a52.371 52.371 0 0020.202 3.826c3.827 0 7.653-.383 11.402-1.07a2.95 2.95 0 002.295-2.296c.23-1.226-.382-2.374-1.378-2.983-5.052-2.831-9.336-6.81-12.627-11.558-.613-.918-1.53-1.53-2.601-1.683-1.07-.153-2.218.077-3.061.765-4.287 3.061-9.032 5.51-14.08 7.118v-4.592c3.904-1.683 5.74-6.2 4.056-10.101C42.934.765 38.416-.996 34.515.613c-3.904 1.608-5.74 6.2-4.057 10.1a7.523 7.523 0 004.057 4.058v4.591a50.206 50.206 0 01-14.158-7.118c-.843-.687-1.991-.917-3.061-.765-1.07.153-1.991.765-2.601 1.683-3.292 4.822-7.653 8.723-12.78 11.632-1.07.613-1.608 1.836-1.378 2.983.227 1.226 1.145 2.147 2.293 2.374zm37.732 41.787V59.694l-6.122-2.831v15.076a3.071 3.071 0 003.06 3.06 3.071 3.071 0 003.062-3.06z" fill="#228ABB"/><path fill-rule="evenodd" clip-rule="evenodd" d="M42.857 44.005l7.04 3.292a7.642 7.642 0 002.757-10.484 7.939 7.939 0 00-3.292-3.062c-1.378-.917-3.29-.535-4.209.844-.917 1.378-.535 3.291.843 4.209.23.152.46.305.766.382.765.383 1.148 1.379.765 2.144a1.85 1.85 0 01-.765.765l-3.905 1.91zM25.638 65.969c1.609.535 3.366-.305 3.905-1.914.46-1.378-.078-2.83-1.3-3.596-.766-.383-1.149-1.378-.766-2.143a1.85 1.85 0 01.765-.766l3.905-1.835-7.04-3.292a7.642 7.642 0 00-2.757 10.484c.688 1.3 1.91 2.374 3.288 3.062zm2.602-26.708c1.608-.535 2.525-2.218 1.99-3.827-.535-1.608-2.218-2.526-3.826-1.99-.23.077-.535.23-.766.382a7.694 7.694 0 00-3.674 10.18 7.772 7.772 0 003.674 3.674l8.801 4.131 12.245 5.818c.766.382 1.148 1.378.766 2.143-.153.305-.46.613-.766.765-1.608.535-2.526 2.218-1.99 3.827.534 1.608 2.217 2.526 3.826 1.99.23-.077.535-.23.765-.382a7.694 7.694 0 003.674-10.18 7.771 7.771 0 00-3.674-3.673l-12.245-5.74-8.8-4.131c-.766-.383-1.149-1.379-.766-2.144.155-.386.382-.69.765-.843z" fill="#B4141B"/></svg>