<svg width="114" height="47" fill="none" xmlns="http://www.w3.org/2000/svg"><path d="M8.408 46.32c-.683 0-1.259-.32-1.728-.96a8.19 8.19 0 01-1.088-2.304c-.256-.853-.384-1.536-.384-2.048 0-.47.043-.79.128-.96.128-.17.363-.299.704-.384 3.243-.896 6.101-2.453 8.576-4.672 2.517-2.219 4.288-4.864 5.312-7.936-1.963 1.067-4.096 1.6-6.4 1.6-1.835 0-3.712-.448-5.632-1.344-1.92-.896-3.563-2.347-4.928-4.352C1.603 20.912.92 18.288.92 15.088c0-3.285.725-5.995 2.176-8.128 1.45-2.133 3.307-3.69 5.568-4.672C10.925 1.264 13.357.752 15.96.752c2.603 0 5.035.576 7.296 1.728 2.304 1.11 4.181 2.923 5.632 5.44 1.45 2.475 2.176 5.653 2.176 9.536 0 7.296-1.643 13.099-4.928 17.408-3.243 4.267-6.699 7.253-10.368 8.96-3.67 1.664-6.123 2.496-7.36 2.496zm7.872-25.152c1.536 0 3.221-.512 5.056-1.536.043-.64.064-1.621.064-2.944 0-2.987-.512-5.141-1.536-6.464-.981-1.323-2.304-1.984-3.968-1.984-1.536 0-2.837.619-3.904 1.856-1.024 1.237-1.536 2.816-1.536 4.736 0 1.963.512 3.52 1.536 4.672 1.024 1.11 2.453 1.664 4.288 1.664zm34.122 25.344c-3.157 0-5.867-.896-8.128-2.688-2.261-1.835-4.01-4.459-5.248-7.872-1.195-3.456-1.792-7.573-1.792-12.352s.597-8.875 1.792-12.288c1.237-3.456 2.987-6.08 5.248-7.872 2.261-1.835 4.97-2.752 8.128-2.752 3.157 0 5.867.917 8.128 2.752 2.261 1.792 3.99 4.416 5.184 7.872 1.237 3.413 1.856 7.51 1.856 12.288 0 4.779-.619 8.896-1.856 12.352-1.195 3.413-2.923 6.037-5.184 7.872-2.261 1.792-4.97 2.688-8.128 2.688zm0-7.488c1.792 0 3.157-1.301 4.096-3.904.981-2.603 1.472-6.443 1.472-11.52s-.49-8.917-1.472-11.52c-.939-2.603-2.304-3.904-4.096-3.904-1.792 0-3.179 1.301-4.16 3.904-.939 2.603-1.408 6.443-1.408 11.52s.47 8.917 1.408 11.52c.981 2.603 2.368 3.904 4.16 3.904zm29.194-16.832c-2.73 0-5.013-.79-6.848-2.368-1.835-1.579-2.752-4.373-2.752-8.384 0-4.01.917-6.805 2.752-8.384C74.583 1.477 76.865.688 79.596.688c2.73 0 5.013.79 6.848 2.368 1.835 1.579 2.752 4.373 2.752 8.384 0 4.01-.917 6.805-2.752 8.384-1.835 1.579-4.117 2.368-6.848 2.368zm-1.344 23.936c-.427 0-.768-.064-1.024-.192a.788.788 0 01-.32-.64c0-.213.107-.533.32-.96l22.848-41.472c.683-1.195 1.621-1.792 2.816-1.792h2.816c.427 0 .747.085.96.256.256.17.384.384.384.64 0 .17-.107.47-.32.896L83.884 44.336c-.683 1.195-1.621 1.792-2.816 1.792h-2.816zm1.344-29.184c2.005 0 3.008-1.835 3.008-5.504 0-3.499-1.003-5.248-3.008-5.248-1.152 0-1.963.512-2.432 1.536-.427.981-.64 2.219-.64 3.712 0 1.536.235 2.837.704 3.904.47 1.067 1.259 1.6 2.368 1.6zm24.768 29.568c-2.731 0-5.013-.79-6.848-2.368-1.835-1.579-2.752-4.373-2.752-8.384 0-4.01.917-6.805 2.752-8.384 1.835-1.579 4.117-2.368 6.848-2.368s5.013.79 6.848 2.368c1.835 1.579 2.752 4.373 2.752 8.384 0 4.01-.917 6.805-2.752 8.384-1.835 1.579-4.117 2.368-6.848 2.368zm0-5.248c2.005 0 3.008-1.835 3.008-5.504 0-3.499-1.003-5.248-3.008-5.248-1.152 0-1.963.512-2.432 1.536-.427.981-.64 2.219-.64 3.712 0 1.536.235 2.837.704 3.904.469 1.067 1.259 1.6 2.368 1.6z" fill="#fff"/></svg>