<svg width="27" height="27" fill="none" xmlns="http://www.w3.org/2000/svg"><path fill-rule="evenodd" clip-rule="evenodd" d="M23.681 4.669a10.793 10.793 0 00-.787-.844A13.41 13.41 0 0013.5 0a13.41 13.41 0 00-9.394 3.825 10.84 10.84 0 00-.787.844A13.303 13.303 0 000 13.5c0 3.375 1.238 6.469 3.263 8.831.224.282.506.563.787.844A13.546 13.546 0 0013.5 27c3.656 0 7.031-1.462 9.45-3.881.281-.281.506-.506.788-.844C25.762 19.969 27 16.875 27 13.5s-1.238-6.469-3.319-8.831zm2.194 8.269H21.32c-.056-1.688-.562-4.107-1.35-5.907a14.76 14.76 0 002.869-1.687c1.744 2.025 2.869 4.781 3.037 7.594zM14.063 1.63c1.687 1.294 3.262 2.925 4.275 4.782-1.35.506-2.588.73-4.275.787V1.631zM12.938 7.2c-1.688-.057-2.925-.338-4.275-.788 1.012-1.856 2.587-3.544 4.275-4.781V7.2zm0 1.124v4.613H6.863c.056-1.688.506-3.825 1.294-5.513 1.518.563 3.093.844 4.78.9zm0 5.738v4.5a15.41 15.41 0 00-4.838.956c-.787-1.687-1.181-3.206-1.294-5.456h6.132zm0 5.625v5.681c-1.688-1.293-3.263-2.981-4.331-4.837 1.35-.507 2.644-.788 4.33-.844zm1.125 0c1.687.056 2.981.338 4.331.844-1.069 1.912-2.644 3.544-4.331 4.838v-5.682zm0-1.125v-4.5h6.075c-.056 2.25-.506 3.769-1.294 5.456-1.462-.562-3.094-.843-4.781-.956zm0-5.625V8.326c1.687-.057 3.262-.394 4.781-.9.788 1.687 1.238 3.825 1.294 5.512h-6.075zm5.344-6.919c-.956-1.8-2.306-3.375-3.881-4.669C18 1.688 20.25 2.87 21.994 4.5c-.787.62-1.687 1.07-2.587 1.52zm-7.931-4.725C9.844 2.588 8.55 4.22 7.594 5.963c-.9-.394-1.8-.9-2.587-1.463C6.75 2.87 9 1.688 11.476 1.294zm-7.257 4.05c.9.675 1.857 1.238 2.87 1.688-.845 1.856-1.295 4.219-1.35 5.906H1.125c.169-2.813 1.294-5.569 3.094-7.594zm-3.093 8.719h4.556c.056 2.25.562 4.05 1.35 5.906a14.76 14.76 0 00-2.869 1.688c-1.8-2.081-2.869-4.781-3.037-7.594zm6.412 6.862a15.12 15.12 0 003.938 4.725 12.035 12.035 0 01-6.525-3.262c.843-.563 1.687-1.013 2.587-1.463zm7.988 4.782c1.63-1.35 2.98-2.925 3.937-4.725.9.393 1.8.9 2.588 1.462-1.744 1.688-4.05 2.813-6.525 3.263zm7.312-4.107a14.76 14.76 0 00-2.869-1.687c.788-1.8 1.294-3.656 1.35-5.906h4.556c-.168 2.868-1.237 5.569-3.037 7.594z" fill="#0E77AF"/></svg>