<svg width="40" height="40" fill="none" xmlns="http://www.w3.org/2000/svg"><path fill-rule="evenodd" clip-rule="evenodd" d="M0 20C0 8.955 8.955 0 20 0s20 8.955 20 20-8.955 20-20 20S0 31.045 0 20zm16.503 10.315c8.89 0 13.912-7.507 13.607-14.24a9.608 9.608 0 002.388-2.482 9.546 9.546 0 01-2.748.755 4.807 4.807 0 002.105-2.648 9.55 9.55 0 01-3.04 1.162 4.783 4.783 0 00-3.493-1.512c-3.092 0-5.364 2.885-4.665 5.878a13.588 13.588 0 01-9.867-5.001 4.794 4.794 0 001.482 6.391 4.776 4.776 0 01-2.169-.598c-.051 2.218 1.539 4.292 3.84 4.755a4.802 4.802 0 01-2.163.082 4.798 4.798 0 004.473 3.325 9.63 9.63 0 01-7.086 1.981 13.544 13.544 0 007.336 2.152z" fill="#fff"/></svg>